<?xml version="1.0" encoding="UTF-8" standalone="no" ?>
<!DOCTYPE svg PUBLIC "-//W3C//DTD SVG 1.1//EN" "http://www.w3.org/Graphics/SVG/1.1/DTD/svg11.dtd">
<svg xmlns="http://www.w3.org/2000/svg" xmlns:xlink="http://www.w3.org/1999/xlink" version="1.1" width="1280" height="1024" viewBox="0 0 1280 1024" xml:space="preserve">
<desc>Created with Fabric.js 5.3.0</desc>
<defs>
</defs>
<g transform="matrix(1 0 0 1 640 512)" id="background-logo"  >
<rect style="stroke: none; stroke-width: 0; stroke-dasharray: none; stroke-linecap: butt; stroke-dashoffset: 0; stroke-linejoin: miter; stroke-miterlimit: 4; fill: rgb(255,255,255); fill-opacity: 0; fill-rule: nonzero; opacity: 1;"  paint-order="stroke"  x="-640" y="-512" rx="0" ry="0" width="1280" height="1024" />
</g>
<g transform="matrix(1.1251991642388623 0 0 1.1251991642388623 261.004375 512)" id="logo-logo"  >
<g style=""  paint-order="stroke"   >
		<g transform="matrix(1.0005280028534786 0 0 -1.0005280028534786 0 20.454194173534802)"  >
<path style="stroke: none; stroke-width: 1; stroke-dasharray: none; stroke-linecap: butt; stroke-dashoffset: 0; stroke-linejoin: miter; stroke-miterlimit: 4; fill: rgb(250,239,163); fill-rule: nonzero; opacity: 1;"  paint-order="stroke"  transform=" translate(120.7735983084329, -5.525999999999982)" d="M 0 0 C -2.535 -11.777 -27.063 -17.319 -61.939 -15.993 L -61.968 -15.993 C -58.629000000000005 -11.865 -55.367000000000004 -7.470000000000001 -52.229 -2.8339999999999996 C -52.224 -2.8219999999999996 -52.216 -2.8089999999999997 -52.207 -2.7969999999999997 C -51.787 -2.175 -51.358000000000004 -1.5639999999999996 -50.943 -0.9319999999999997 C -36.055 4.747000000000001 -21.991999999999997 11.37 -10.961999999999996 18.770000000000003 C -2.83 12.135 1.218 5.678 0 0 M -179.607 -15.993 C -214.484 -17.319 -239.012 -11.777000000000001 -241.547 0 C -242.765 5.678 -238.716 12.135 -230.585 18.77 C -219.555 11.37 -205.494 4.747 -190.604 -0.9320000000000022 C -190.187 -1.5640000000000023 -189.762 -2.1750000000000025 -189.34 -2.7970000000000024 C -189.333 -2.8090000000000024 -189.326 -2.8220000000000023 -189.317 -2.8340000000000023 L -189.316 -2.8340000000000023 C -186.18 -7.470000000000002 -182.916 -11.865000000000002 -179.579 -15.993000000000002 z M -1.553 25.958 C 8.242 34.619 13.533999999999999 44.161 11.34 54.376 C 8.605 67.096 -4.265000000000001 74.094 -21.895999999999997 77.365 C -20.010999999999996 74.11699999999999 -18.596999999999998 69.89999999999999 -19.011999999999997 64.86099999999999 C -8.134999999999996 62.16899999999999 -1.2739999999999974 57.84799999999999 -0.002999999999996561 51.93999999999999 C 1.2180000000000035 46.26199999999999 -2.8589999999999964 39.80199999999999 -10.983999999999996 33.16599999999999 C -13.905999999999997 30.78199999999999 -17.347999999999995 28.37699999999999 -21.269 25.97599999999999 C -27.012 22.457999999999988 -33.732 18.950999999999986 -41.339 15.540999999999988 C -41.355 15.532999999999989 -41.375 15.523999999999988 -41.393 15.518999999999988 C -52.993 10.322999999999988 -66.59 5.365999999999987 -81.536 0.936999999999987 C -91.672 -2.070000000000013 -102.406 -4.838000000000013 -113.63 -7.252000000000013 C -116.026 -7.7690000000000135 -118.402 -8.242000000000013 -120.773 -8.714000000000013 C -123.14399999999999 -8.242000000000013 -125.51899999999999 -7.769000000000013 -127.917 -7.252000000000013 C -139.139 -4.838000000000013 -149.876 -2.0700000000000127 -160.011 0.936999999999987 C -174.957 5.365999999999987 -188.554 10.322999999999986 -200.153 15.518999999999988 C -200.171 15.523999999999988 -200.191 15.532999999999987 -200.208 15.540999999999988 C -207.814 18.950999999999986 -214.535 22.457999999999988 -220.277 25.97599999999999 C -224.19899999999998 28.37699999999999 -227.642 30.78199999999999 -230.56099999999998 33.16599999999999 C -238.688 39.80199999999999 -242.76399999999998 46.261999999999986 -241.54399999999998 51.93999999999999 C -240.272 57.84799999999999 -233.41299999999998 62.16899999999999 -222.53599999999997 64.86099999999999 C -222.94999999999996 69.89999999999999 -221.53599999999997 74.11699999999999 -219.65099999999998 77.365 C -237.28199999999998 74.094 -250.152 67.09599999999999 -252.88699999999997 54.37599999999999 C -255.08299999999997 44.16099999999999 -249.78899999999996 34.618999999999986 -239.99399999999997 25.95799999999999 C -249.78099999999998 17.304999999999993 -255.08299999999997 7.77099999999999 -252.88699999999997 -2.439000000000007 C -247.92399999999998 -25.519000000000005 -209.59499999999997 -29.809000000000008 -169.95899999999997 -27.050000000000008 C -169.70399999999998 -27.32100000000001 -169.45 -27.57100000000001 -169.194 -27.84200000000001 C -168.165 -28.93200000000001 -167.13799999999998 -30.00200000000001 -166.10899999999998 -31.04400000000001 C -165.85699999999997 -31.30000000000001 -165.60299999999998 -31.56600000000001 -165.35 -31.82200000000001 C -164.097 -33.08000000000001 -162.85 -34.29500000000001 -161.608 -35.48400000000001 C -161.255 -35.82200000000001 -160.90200000000002 -36.15700000000001 -160.549 -36.48900000000001 C -159.286 -37.68500000000001 -158.026 -38.85700000000001 -156.78300000000002 -39.97900000000001 C -156.77400000000003 -39.987000000000016 -156.76600000000002 -39.996000000000016 -156.757 -40.00500000000002 C -155.463 -41.171000000000014 -154.187 -42.28700000000002 -152.922 -43.378000000000014 C -152.659 -43.60200000000001 -152.396 -43.829000000000015 -152.135 -44.054000000000016 C -150.87199999999999 -45.12900000000002 -149.623 -46.180000000000014 -148.39999999999998 -47.179000000000016 C -148.38799999999998 -47.18800000000002 -148.37599999999998 -47.19600000000002 -148.36299999999997 -47.20800000000002 C -147.11799999999997 -48.22400000000002 -145.90199999999996 -49.19200000000002 -144.70499999999998 -50.12600000000002 C -144.54 -50.25700000000002 -144.374 -50.38800000000002 -144.20899999999997 -50.51500000000002 C -143.00099999999998 -51.45500000000002 -141.81699999999998 -52.36000000000002 -140.67199999999997 -53.215000000000025 C -140.64999999999998 -53.23200000000003 -140.63099999999997 -53.24600000000002 -140.60899999999998 -53.261000000000024 C -139.45499999999998 -54.124000000000024 -138.337 -54.938000000000024 -137.25499999999997 -55.71400000000003 C -137.17499999999995 -55.77100000000003 -137.09599999999998 -55.82700000000003 -137.01799999999997 -55.88400000000003 C -135.91599999999997 -56.67100000000003 -134.85299999999998 -57.41700000000003 -133.83799999999997 -58.11300000000003 C -133.82199999999997 -58.12400000000003 -133.80699999999996 -58.13600000000003 -133.78999999999996 -58.14700000000003 C -131.71399999999997 -59.572000000000024 -129.82899999999995 -60.810000000000024 -128.17799999999997 -61.86000000000003 C -128.16099999999997 -61.87200000000003 -128.14399999999998 -61.88400000000003 -128.12499999999997 -61.895000000000024 C -126.23999999999997 -63.093000000000025 -124.68199999999997 -64.03200000000002 -123.47699999999998 -64.74200000000002 C -122.03799999999998 -65.58600000000001 -121.10999999999997 -66.09400000000002 -120.84499999999997 -66.23500000000001 L -120.84499999999997 -66.31300000000002 L -120.84199999999997 -66.31000000000002 L -120.84199999999997 -66.31300000000002 C -120.84199999999997 -66.31300000000002 -120.79499999999997 -66.28400000000002 -120.77299999999997 -66.27500000000002 C -120.75199999999997 -66.28400000000002 -120.70499999999997 -66.31300000000002 -120.70499999999997 -66.31300000000002 L -120.70499999999997 -66.31000000000002 L -120.70299999999997 -66.31300000000002 L -120.70299999999997 -66.23500000000001 C -120.43999999999997 -66.09700000000001 -119.53099999999998 -65.59700000000001 -118.12199999999997 -64.77100000000002 C -116.90599999999998 -64.05800000000002 -115.32799999999997 -63.10700000000001 -113.41099999999997 -61.88900000000002 C -113.39999999999998 -61.881000000000014 -113.38599999999997 -61.872000000000014 -113.37499999999997 -61.863000000000014 C -111.72299999999997 -60.81300000000002 -109.83699999999997 -59.57500000000002 -107.75899999999997 -58.14700000000001 C -107.74099999999997 -58.13600000000001 -107.72499999999997 -58.12400000000001 -107.70699999999997 -58.113000000000014 C -106.69399999999996 -57.417000000000016 -105.62899999999996 -56.671000000000014 -104.52999999999996 -55.884000000000015 C -104.45099999999996 -55.82700000000001 -104.37099999999995 -55.771000000000015 -104.29199999999996 -55.71400000000001 C -103.20999999999997 -54.93800000000001 -102.09199999999996 -54.12400000000001 -100.93599999999996 -53.26100000000001 C -100.91599999999997 -53.24600000000001 -100.89599999999996 -53.232000000000006 -100.87699999999997 -53.21500000000001 C -99.72899999999997 -52.360000000000014 -98.54499999999997 -51.45500000000001 -97.33599999999997 -50.51500000000001 C -97.17399999999996 -50.388000000000005 -97.00699999999998 -50.257000000000005 -96.84199999999997 -50.126000000000005 C -95.64599999999997 -49.19200000000001 -94.42899999999997 -48.224000000000004 -93.18299999999996 -47.208000000000006 C -93.17099999999996 -47.196000000000005 -93.15899999999996 -47.188 -93.14799999999997 -47.179 C -91.92499999999997 -46.18 -90.67499999999997 -45.129000000000005 -89.41199999999996 -44.054 C -89.14999999999996 -43.829 -88.88999999999996 -43.602000000000004 -88.62499999999996 -43.378 C -87.36099999999996 -42.287 -86.08399999999996 -41.171 -84.78899999999996 -40.005 C -84.78099999999996 -39.996 -84.77199999999996 -39.987 -84.76399999999995 -39.979 C -83.52099999999996 -38.857 -82.25999999999995 -37.685 -80.99599999999995 -36.489 C -80.64499999999995 -36.157 -80.29199999999996 -35.821999999999996 -79.93999999999996 -35.483999999999995 C -78.69599999999996 -34.294999999999995 -77.44999999999996 -33.08 -76.19799999999995 -31.821999999999996 C -75.94499999999995 -31.568999999999996 -75.69199999999995 -31.302999999999997 -75.43999999999996 -31.046999999999997 C -74.41199999999995 -30.001999999999995 -73.37899999999996 -28.929 -72.34899999999996 -27.839 C -72.09299999999996 -27.569 -71.83999999999996 -27.320999999999998 -71.58699999999996 -27.049999999999997 C -31.951999999999963 -29.808999999999997 6.377000000000038 -25.519 11.340000000000046 -2.4389999999999965 C 13.537000000000045 7.771000000000004 8.233000000000047 17.305000000000003 -1.5529999999999546 25.958000000000002" stroke-linecap="round" />
</g>
		<g transform="matrix(1.0005280028534786 0 0 -1.0005280028534786 0.00019841314025370593 -34.257478500901414)"  >
<path style="stroke: none; stroke-width: 1; stroke-dasharray: none; stroke-linecap: butt; stroke-dashoffset: 0; stroke-linejoin: miter; stroke-miterlimit: 4; fill: rgb(245,221,66); fill-rule: nonzero; opacity: 1;"  paint-order="stroke"  transform=" translate(-87.08399999999999, -27.408000000000005)" d="M 0 0 C 1.664 -4.443 3.561 -8.664 5.542 -12.793 C 6.316 -13.151 7.06 -13.511999999999999 7.853999999999999 -13.866 C 7.8709999999999996 -13.875 7.890999999999999 -13.884 7.908999999999999 -13.889999999999999 C 19.508 -19.085 33.105000000000004 -24.041999999999998 48.051 -28.472 C 50.534 -29.207 53.055 -29.931 55.608000000000004 -30.635 C 65.208 -29.062 75.848 -27.1 87.084 -24.67 C 115.575 -18.503 147.732 -9.347000000000001 175.587 4.056999999999999 C 178.74099999999999 13.216999999999999 181.2 22.971999999999998 182.65699999999998 33.369 C 183.009 35.868 183.31799999999998 38.394999999999996 183.55399999999997 40.967 C 183.55399999999997 40.967 182.41199999999998 42.335 179.86899999999997 44.635 C 179.80099999999996 44.696999999999996 179.71899999999997 44.766999999999996 179.64699999999996 44.83 C 179.34999999999997 45.099 179.04299999999995 45.372 178.70499999999996 45.664 C 178.67599999999996 45.690000000000005 178.64299999999994 45.718 178.61299999999994 45.744 C 178.08899999999994 46.196 177.50099999999995 46.688 176.88499999999993 47.193 C 176.69999999999993 47.345 176.50999999999993 47.498 176.31599999999995 47.653999999999996 C 175.65199999999996 48.19199999999999 174.95099999999994 48.748 174.18499999999995 49.333999999999996 C 174.07399999999996 49.416999999999994 173.95199999999994 49.50899999999999 173.83799999999994 49.593999999999994 C 173.13999999999993 50.123 172.39099999999993 50.67399999999999 171.60899999999992 51.236 C 171.32499999999993 51.44 171.03599999999992 51.645999999999994 170.73999999999992 51.855 C 169.8859999999999 52.459999999999994 168.99199999999993 53.08 168.03799999999993 53.717999999999996 C 167.82499999999993 53.858999999999995 167.60399999999993 54.004 167.38799999999992 54.147 C 166.48999999999992 54.741 165.54199999999992 55.349 164.55999999999992 55.964999999999996 C 164.17999999999992 56.202999999999996 163.79299999999992 56.443 163.3979999999999 56.684999999999995 C 162.32199999999992 57.346 161.2069999999999 58.017999999999994 160.0339999999999 58.699 C 159.7419999999999 58.869 159.4369999999999 59.041 159.1399999999999 59.211 C 158.0099999999999 59.859 156.8259999999999 60.515 155.6049999999999 61.176 C 155.1339999999999 61.432 154.6539999999999 61.688 154.1679999999999 61.945 C 152.8249999999999 62.658 151.4419999999999 63.374 149.9949999999999 64.096 C 149.67099999999988 64.257 149.3419999999999 64.417 149.01599999999988 64.578 C 147.6019999999999 65.273 146.12799999999987 65.97200000000001 144.61099999999988 66.67 C 144.06099999999986 66.926 143.50199999999987 67.183 142.93399999999988 67.438 C 141.27799999999988 68.185 139.57999999999987 68.933 137.80899999999988 69.681 C 137.4999999999999 69.81 137.18699999999987 69.939 136.8749999999999 70.068 C 135.1319999999999 70.795 133.3169999999999 71.518 131.4609999999999 72.239 C 130.83899999999988 72.482 130.2079999999999 72.723 129.5719999999999 72.964 C 127.55699999999989 73.727 125.49799999999989 74.486 123.35199999999989 75.239 C 123.10399999999989 75.325 122.85199999999989 75.41000000000001 122.60499999999989 75.497 C 120.4809999999999 76.232 118.27799999999989 76.959 116.0259999999999 77.678 C 115.33999999999989 77.89699999999999 114.6449999999999 78.116 113.9449999999999 78.333 C 111.5489999999999 79.079 109.1039999999999 79.817 106.5609999999999 80.53999999999999 C 106.38199999999989 80.589 106.20299999999989 80.639 106.02099999999989 80.69 C 103.49399999999989 81.401 100.87099999999988 82.095 98.19299999999988 82.779 C 97.44099999999989 82.97099999999999 96.68399999999988 83.161 95.91999999999989 83.35 C 93.11399999999989 84.04599999999999 90.25599999999989 84.72999999999999 87.28799999999988 85.389 C 87.24199999999988 85.398 87.19899999999988 85.41 87.15199999999989 85.42 L 87.15199999999989 85.45100000000001 C 87.13099999999989 85.44300000000001 87.10799999999989 85.44300000000001 87.08999999999989 85.43700000000001 C 87.08699999999989 85.43700000000001 87.08699999999989 85.43700000000001 87.08399999999989 85.43800000000002 C 87.08099999999989 85.43700000000001 87.08099999999989 85.43700000000001 87.07799999999989 85.43700000000001 C 87.05999999999989 85.44300000000001 87.03699999999989 85.44300000000001 87.01599999999989 85.45100000000001 L 87.01599999999989 85.42 C 86.969 85.41 86.926 85.398 86.879 85.389 C 83.913 84.73 81.054 84.046 78.249 83.35 C 77.484 83.161 76.725 82.971 75.974 82.779 C 73.298 82.095 70.673 81.401 68.145 80.69 C 67.966 80.639 67.786 80.589 67.607 80.54 C 65.063 79.817 62.619 79.079 60.223 78.333 C 59.524 78.116 58.83 77.897 58.143 77.678 C 55.89 76.959 53.685 76.232 51.564 75.497 C 51.316 75.41 51.064 75.325 50.817 75.239 C 48.671 74.486 46.61 73.727 44.597 72.964 C 43.959 72.723 43.329 72.482 42.708 72.239 C 40.849 71.518 39.036 70.795 37.293 70.068 C 36.982 69.939 36.668 69.81 36.36 69.681 C 34.587 68.933 32.89 68.185 31.234 67.438 C 30.668 67.183 30.108 66.926 29.555 66.67 C 28.04 65.972 26.566 65.273 25.154 64.578 C 24.826 64.417 24.497 64.257 24.175 64.096 C 22.725 63.374 21.341 62.658 19.998 61.945 C 19.513 61.688 19.034 61.432 18.563 61.176 C 17.342 60.515 16.158 59.859 15.028 59.211 C 14.729 59.041 14.428 58.869 14.134 58.699 C 12.96 58.018 11.844 57.346 10.77 56.685 C 10.375 56.443 9.988 56.203 9.608 55.965 C 8.626 55.349 7.679 54.741 6.782 54.147 C 6.564 54.004 6.342 53.859 6.13 53.718 C 5.176 53.08 4.282 52.46 3.427 51.855 C 3.132 51.646 2.842 51.44 2.559 51.236 C 1.777 50.674 1.028 50.123 0.33 49.594 C 0.216 49.509 0.094 49.417 -0.017 49.334 C -0.783 48.748 -1.484 48.192 -2.15 47.654 C -2.344 47.498 -2.532 47.345 -2.717 47.193 C -3.333 46.688 -3.921 46.196 -4.444 45.744 C -4.474 45.718 -4.508 45.69 -4.537 45.664 C -4.875 45.372 -5.181 45.099 -5.479 44.83 C -5.55 44.767 -5.631 44.697 -5.699 44.635 C -8.243 42.335 -9.386 40.967 -9.386 40.967 C -8.426 30.405 -6.419 20.474 -3.679 11.113 C -2.569 7.314 -1.346 3.6 0 0" stroke-linecap="round" />
</g>
</g>
</g>
<g transform="matrix(1.9211538461538462 0 0 1.9211538461538462 819.3493173076923 487.9377949054715)" id="text-logo"  >
<g style=""  paint-order="stroke"   >
		<g transform="matrix(1 0 0 1 0 0)" id="text-logo-path-0"  >
<path style="stroke: none; stroke-width: 0; stroke-dasharray: none; stroke-linecap: butt; stroke-dashoffset: 0; stroke-linejoin: miter; stroke-miterlimit: 4; fill: rgb(245,221,66); fill-rule: nonzero; opacity: 1;"  paint-order="stroke"  transform=" translate(-182.71999999999997, 22.4)" d="M 14.4 -44.8 L 4.16 -44.8 L 4.16 0 L 36.35 0 L 36.35 -9.6 L 14.4 -9.6 Z M 76.8 -44.8 L 65.92 -44.8 L 50.56 0 L 61.44 0 L 64.58 -9.6 L 78.14 -9.6 L 81.28 0 L 92.16 0 Z M 74.94 -19.2 L 67.78 -19.2 L 71.36 -30.21 Z M 129.22 -44.8 L 109.76 -44.8 L 109.76 0 L 130.75 0 C 138.18 0 143.36 -4.67 143.36 -12.1 C 143.36 -17.47 140.61 -21.44 136.26 -23.17 C 139.46 -25.15 141.44 -28.61 141.44 -33.09 C 141.44 -40.32 136.45 -44.8 129.22 -44.8 Z M 126.91 -26.75 L 120 -26.75 L 120 -35.2 L 126.91 -35.2 C 129.41 -35.2 131.2 -33.73 131.2 -31.04 C 131.2 -28.29 129.41 -26.75 126.91 -26.75 Z M 128.9 -9.6 L 120 -9.6 L 120 -17.86 L 128.9 -17.86 C 131.26 -17.86 133.12 -16.32 133.12 -13.7 C 133.12 -11.07 131.33 -9.6 128.9 -9.6 Z M 183.04 -35.2 L 196.48 -35.2 L 196.48 -44.8 L 159.36 -44.8 L 159.36 -35.2 L 172.8 -35.2 L 172.8 0 L 183.04 0 Z M 246.46 -44.8 L 214.27 -44.8 L 214.27 0 L 246.46 0 L 246.46 -9.6 L 224.51 -9.6 L 224.51 -18.56 L 242.62 -18.56 L 242.62 -28.16 L 224.51 -28.16 L 224.51 -35.2 L 246.46 -35.2 Z M 286.91 1.02 C 294.4 1.02 300.67 -1.79 304.83 -6.66 L 297.15 -13.31 C 294.78 -10.3 291.2 -8.58 286.91 -8.58 C 279.17 -8.58 273.73 -14.27 273.73 -22.4 C 273.73 -30.46 279.17 -36.22 286.91 -36.22 C 290.62 -36.22 293.82 -34.88 296.19 -32.64 L 302.91 -40.13 C 298.82 -43.78 293.31 -45.82 286.91 -45.82 C 273.15 -45.82 263.49 -36.29 263.49 -22.46 C 263.49 -8.7 273.15 1.02 286.91 1.02 Z M 333.12 -44.8 L 322.88 -44.8 L 322.88 0 L 333.12 0 L 333.12 -17.92 L 351.04 -17.92 L 351.04 0 L 361.28 0 L 361.28 -44.8 L 351.04 -44.8 L 351.04 -27.52 L 333.12 -27.52 Z" stroke-linecap="round" />
</g>
</g>
</g>
<g transform="matrix(1.9211538461538462 0 0 1.9211538461538462 713.5488159802413 575.0705021014022)" id="tagline-ae924f57-93d7-4410-b2fc-303e47bded8d-logo"  >
<g style=""  paint-order="stroke"   >
		<g transform="matrix(1 0 0 1 0 0)" id="tagline-ae924f57-93d7-4410-b2fc-303e47bded8d-logo-path-0"  >
<path style="stroke: none; stroke-width: 0; stroke-dasharray: none; stroke-linecap: butt; stroke-dashoffset: 0; stroke-linejoin: miter; stroke-miterlimit: 4; fill: rgb(245,219,56); fill-rule: nonzero; opacity: 1;"  paint-order="stroke"  transform=" translate(-124.33459178740543, 7.790000000000001)" d="M 1.65 -13.86 L 2.95 -13.86 L 2.95 -1.54 L 1.65 -1.54 C 1.21 -1.54 0.88 -1.19 0.88 -0.77 C 0.86 -0.33 1.21 0 1.65 0 L 5.79 0 C 6.2 0 6.56 -0.35 6.56 -0.77 C 6.53 -1.21 6.2 -1.54 5.79 -1.54 L 4.49 -1.54 L 4.49 -13.86 L 5.79 -13.86 C 6.2 -13.86 6.56 -14.21 6.56 -14.63 C 6.53 -15.07 6.2 -15.4 5.79 -15.4 L 1.65 -15.4 C 1.21 -15.4 0.88 -15.05 0.88 -14.63 C 0.86 -14.19 1.21 -13.86 1.65 -13.86 Z M 20.24 -0.7 L 20.2 -12.58 L 29.3 -0.37 C 29.88 0.35 31.02 -0.04 31.02 -0.95 L 31.02 -14.72 C 31.02 -15.14 30.67 -15.49 30.25 -15.49 C 29.81 -15.47 29.48 -15.14 29.48 -14.72 L 29.48 -2.71 L 20.26 -15.07 C 19.73 -15.77 18.66 -15.33 18.66 -14.48 L 18.7 -0.68 C 18.7 -0.29 19.05 0.09 19.47 0.09 C 19.87 0.09 20.24 -0.29 20.24 -0.7 Z M 51.11 -1.54 C 47.65 -1.54 44.92 -4.27 44.92 -7.72 C 44.92 -11.13 47.65 -13.86 51.11 -13.86 C 54.49 -13.86 57.24 -11.13 57.24 -7.72 C 57.24 -4.27 54.49 -1.54 51.11 -1.54 Z M 51.11 0 C 55.33 0 58.78 -3.43 58.78 -7.72 C 58.78 -11.97 55.33 -15.4 51.11 -15.4 C 46.82 -15.4 43.38 -11.97 43.38 -7.72 C 43.38 -3.43 46.82 0 51.11 0 Z M 70.99 -14.45 L 76.43 -0.59 C 76.74 0.18 77.81 0.22 78.14 -0.59 L 83.58 -14.45 C 83.62 -14.56 83.64 -14.65 83.64 -14.76 C 83.64 -15.16 83.29 -15.53 82.87 -15.53 C 82.57 -15.53 82.26 -15.31 82.15 -15.05 L 77.29 -2.6 L 72.42 -15.05 C 72.29 -15.36 72.03 -15.53 71.7 -15.53 C 71.3 -15.53 70.93 -15.18 70.93 -14.76 C 70.93 -14.67 70.95 -14.56 70.99 -14.45 Z M 76.74 -1.17 L 76.74 -1.19 Z M 108.44 -0.95 L 103 -14.81 C 102.7 -15.58 101.62 -15.62 101.29 -14.81 L 95.85 -0.95 C 95.81 -0.84 95.79 -0.75 95.79 -0.64 C 95.79 -0.24 96.14 0.13 96.56 0.13 C 96.87 0.13 97.17 -0.09 97.28 -0.35 L 99.15 -5.17 L 105.12 -5.17 L 107.01 -0.35 C 107.14 -0.04 107.4 0.13 107.73 0.13 C 108.13 0.13 108.5 -0.22 108.5 -0.64 C 108.5 -0.73 108.48 -0.84 108.44 -0.95 Z M 99.77 -6.71 L 102.15 -12.8 L 104.52 -6.71 Z M 102.7 -14.21 L 102.7 -14.23 Z M 132.31 -2.97 C 131.25 -2.07 129.87 -1.54 128.37 -1.54 C 124.92 -1.54 122.19 -4.27 122.19 -7.72 C 122.19 -11.13 124.92 -13.86 128.37 -13.86 C 129.56 -13.86 130.66 -13.53 131.63 -12.94 C 131.76 -12.85 131.87 -12.83 132.02 -12.83 C 132.44 -12.83 132.79 -13.16 132.79 -13.6 C 132.79 -13.86 132.64 -14.12 132.42 -14.26 C 131.23 -14.98 129.84 -15.4 128.37 -15.4 C 124.08 -15.4 120.65 -11.97 120.65 -7.72 C 120.65 -3.67 123.71 -0.4 127.64 -0.04 L 127.64 0.66 C 127.64 1.12 128.02 1.52 128.46 1.54 C 128.85 1.58 129.18 1.87 129.18 2.05 C 129.18 2.31 128.9 2.66 128.22 2.66 C 127.82 2.66 127.45 3.01 127.45 3.43 C 127.45 3.83 127.82 4.2 128.22 4.2 C 129.95 4.18 130.72 3.01 130.72 2.05 C 130.72 1.19 130.06 0.44 129.18 0.13 L 129.18 -0.04 C 130.72 -0.2 132.18 -0.84 133.32 -1.8 C 133.47 -1.94 133.58 -2.16 133.58 -2.4 C 133.58 -2.79 133.23 -3.15 132.81 -3.15 C 132.64 -3.15 132.46 -3.1 132.31 -2.97 Z M 158.38 -0.95 L 152.94 -14.81 C 152.64 -15.58 151.56 -15.62 151.23 -14.81 L 145.79 -0.95 C 145.75 -0.84 145.73 -0.75 145.73 -0.64 C 145.73 -0.24 146.08 0.13 146.5 0.13 C 146.81 0.13 147.11 -0.09 147.22 -0.35 L 149.09 -5.17 L 155.06 -5.17 L 156.95 -0.35 C 157.08 -0.04 157.34 0.13 157.67 0.13 C 158.07 0.13 158.44 -0.22 158.44 -0.64 C 158.44 -0.73 158.42 -0.84 158.38 -0.95 Z M 153.34 -18.02 C 153.25 -17.86 153.21 -17.84 153.23 -17.84 C 153.12 -17.84 152.97 -17.95 152.59 -18.24 C 152.06 -18.68 151.54 -19.03 150.94 -19.03 C 150.28 -19.03 149.8 -18.61 149.49 -18.06 C 149.42 -17.95 149.38 -17.82 149.38 -17.69 C 149.38 -17.27 149.73 -16.92 150.15 -16.92 C 150.44 -16.92 150.7 -17.07 150.83 -17.31 L 150.94 -17.49 C 151.05 -17.49 151.27 -17.34 151.62 -17.05 C 152.17 -16.63 152.61 -16.3 153.23 -16.3 C 153.91 -16.3 154.35 -16.7 154.68 -17.27 C 154.73 -17.36 154.77 -17.51 154.77 -17.64 C 154.77 -18.06 154.44 -18.41 154 -18.41 C 153.74 -18.41 153.47 -18.26 153.34 -18.02 Z M 149.71 -6.71 L 152.09 -12.8 L 154.46 -6.71 Z M 152.64 -14.21 L 152.64 -14.23 Z M 178.53 -1.54 C 175.08 -1.54 172.35 -4.27 172.35 -7.72 C 172.35 -11.13 175.08 -13.86 178.53 -13.86 C 181.92 -13.86 184.67 -11.13 184.67 -7.72 C 184.67 -4.27 181.92 -1.54 178.53 -1.54 Z M 178.53 0 C 182.75 0 186.21 -3.43 186.21 -7.72 C 186.21 -11.97 182.75 -15.4 178.53 -15.4 C 174.24 -15.4 170.81 -11.97 170.81 -7.72 C 170.81 -3.43 174.24 0 178.53 0 Z M 221.39 -14.72 L 221.39 -4.95 C 221.39 -3.06 219.85 -1.54 218.02 -1.54 C 216.35 -1.54 214.92 -2.79 214.65 -4.38 C 214.59 -4.77 214.28 -5.04 213.91 -5.04 C 213.44 -5.04 213.07 -4.58 213.14 -4.14 C 213.53 -1.78 215.58 0 218.02 0 C 220.68 0 222.93 -2.22 222.93 -4.95 L 222.93 -14.72 C 222.93 -15.14 222.57 -15.49 222.16 -15.49 C 221.72 -15.47 221.39 -15.14 221.39 -14.72 Z M 247.72 -0.95 L 242.29 -14.81 C 241.98 -15.58 240.9 -15.62 240.57 -14.81 L 235.14 -0.95 C 235.09 -0.84 235.07 -0.75 235.07 -0.64 C 235.07 -0.24 235.42 0.13 235.84 0.13 C 236.15 0.13 236.46 -0.09 236.57 -0.35 L 238.44 -5.17 L 244.4 -5.17 L 246.29 -0.35 C 246.42 -0.04 246.69 0.13 247.02 0.13 C 247.41 0.13 247.79 -0.22 247.79 -0.64 C 247.79 -0.73 247.76 -0.84 247.72 -0.95 Z M 241.43 -19.49 L 240.22 -18 C 240.11 -17.86 240.04 -17.69 240.04 -17.49 C 240.04 -17.09 240.39 -16.72 240.81 -16.72 C 241.03 -16.72 241.27 -16.85 241.41 -17.01 L 242.62 -18.5 C 242.73 -18.63 242.79 -18.81 242.79 -19.01 C 242.79 -19.4 242.44 -19.78 242.02 -19.78 C 241.8 -19.78 241.56 -19.65 241.43 -19.49 Z M 239.05 -6.71 L 241.43 -12.8 L 243.8 -6.71 Z M 241.98 -14.21 L 241.98 -14.23 Z" stroke-linecap="round" />
</g>
</g>
</g>
<g transform="matrix(1.9211538461538462 0 0 1.9211538461538462 261.56199384911923 472.44310357757615)" id="tagline-f0298f46-1fe8-4964-8245-bcc33c1b1639-logo"  >
<g style=""  paint-order="stroke"   >
		<g transform="matrix(1 0 0 1 0 0)" id="tagline-f0298f46-1fe8-4964-8245-bcc33c1b1639-logo-path-0"  >
<filter id="SVGID_116391" y="-20%" height="140%" x="-40.937987532553535%" width="181.87597506510707%" >
	<feGaussianBlur in="SourceAlpha" stdDeviation="0"></feGaussianBlur>
	<feOffset dx="3.385672584013907" dy="0" result="oBlur" ></feOffset>
	<feFlood flood-color="rgb(48,162,174)" flood-opacity="1"/>
	<feComposite in2="oBlur" operator="in" />
	<feMerge>
		<feMergeNode></feMergeNode>
		<feMergeNode in="SourceGraphic"></feMergeNode>
	</feMerge>
</filter>
<path style="stroke: none; stroke-width: 0; stroke-dasharray: none; stroke-linecap: butt; stroke-dashoffset: 0; stroke-linejoin: miter; stroke-miterlimit: 4; fill: rgb(255,255,255); fill-rule: nonzero; opacity: 1;filter: url(#SVGID_116391);"  paint-order="stroke"  transform=" translate(-10.044999999999998, 17.15)" d="M 1.96 -34.3 L 1.96 0 L 18.13 0 L 18.13 -5.39 L 7.35 -5.39 L 7.35 -34.3 Z" stroke-linecap="round" />
</g>
</g>
</g>
</svg>